<svg
              class="Icon_awesome_soundcloud"
              viewBox="0 8.234 197.409 84.134">
              <path
                fill="#949494"
                id="Icon_awesome_soundcloud"
                d="M 34.36692428588867 50.37618255615234 L 36.15622329711914 70.05484008789062 L 34.36692428588867 90.73252868652344 C 34.27437210083008 91.48941040039062 33.6882209777832 92.06463623046875 33.00952529907227 92.06463623046875 C 32.3308219909668 92.06463623046875 31.71381950378418 91.48941040039062 31.71381950378418 90.73252868652344 L 29.98621940612793 70.05484008789062 L 31.71381950378418 50.37618255615234 C 31.71381950378418 49.71014022827148 32.29997253417969 49.10463333129883 33.00952529907227 49.10463333129883 C 33.6882209777832 49.10463333129883 34.27437591552734 49.71014022827148 34.36692428588867 50.37618255615234 Z M 40.96882629394531 36.57085418701172 C 40.10503005981445 36.57085418701172 39.51887512207031 37.23690414428711 39.42632675170898 38.0845947265625 L 37.88382720947266 70.05484008789062 L 39.42632675170898 90.73252868652344 C 39.51887512207031 91.58023834228516 40.10503005981445 92.24628448486328 40.96882629394531 92.24628448486328 C 41.74007797241211 92.24628448486328 42.41878509521484 91.58023834228516 42.41878509521484 90.73252868652344 L 44.20808029174805 70.05484008789062 L 42.41878509521484 38.0845947265625 C 42.41878509521484 37.23690414428711 41.74007797241211 36.57085418701172 40.96882629394531 36.57085418701172 Z M 48.8355827331543 29.27460861206055 C 47.87923812866211 29.27460861206055 47.20053482055664 29.94066047668457 47.10798263549805 30.87917709350586 L 45.75058364868164 70.23646545410156 L 47.10798263549805 90.76280212402344 C 47.20053100585938 91.70131683349609 47.87923812866211 92.36737060546875 48.8355827331543 92.36737060546875 C 49.69938659667969 92.36737060546875 50.47063827514648 91.70131683349609 50.47063827514648 90.76280212402344 L 52.10568237304688 70.23646545410156 L 50.47063827514648 30.87917709350586 C 50.47063827514648 29.94066047668457 49.69938659667969 29.27460861206055 48.8355827331543 29.27460861206055 Z M 2.221201658248901 58.52012634277344 C 1.789301514625549 58.52012634277344 1.542501449584961 58.85314559936523 1.44995129108429 59.27700424194336 L 0 70.05484008789062 L 1.449951171875 80.65101623535156 C 1.542501091957092 81.07485961914062 1.789301156997681 81.40789031982422 2.221201658248901 81.40789031982422 C 2.653102397918701 81.40789031982422 2.899902582168579 81.07485961914062 2.992452383041382 80.65101623535156 L 4.720054149627686 70.05484008789062 L 2.992452621459961 59.27700424194336 C 2.899903059005737 58.85314559936523 2.653102397918701 58.52012634277344 2.22120189666748 58.52012634277344 Z M 9.501808166503906 51.88993072509766 C 9.069908142089844 51.88993072509766 8.730556488037109 52.22295379638672 8.730556488037109 52.64680099487305 L 6.756155490875244 70.05484008789062 L 8.730556488037109 87.03900909423828 C 8.730556488037109 87.55368804931641 9.069908142089844 87.88668823242188 9.501808166503906 87.88668823242188 C 9.933709144592285 87.88668823242188 10.27305889129639 87.55368804931641 10.36560916900635 87.12983703613281 L 12.58681011199951 70.05481719970703 L 10.36560916900635 52.64680099487305 C 10.27305889129639 52.22294616699219 9.933709144592285 51.88992309570312 9.501808166503906 51.88992309570312 Z M 17.30686378479004 48.43858337402344 C 16.78241348266602 48.43858337402344 16.35051345825195 48.86245727539062 16.2888126373291 49.43765640258789 L 14.49951171875 70.05484008789062 L 16.2888126373291 89.97567749023438 C 16.38136291503906 90.4903564453125 16.81326293945312 90.91419219970703 17.30686378479004 90.91419219970703 C 17.83131408691406 90.91419219970703 18.26321601867676 90.4903564453125 18.26321601867676 89.97567749023438 L 20.39186477661133 70.05484008789062 L 18.26321601867676 49.43765640258789 C 18.26321601867676 48.86243438720703 17.8313159942627 48.43858337402344 17.30686378479004 48.43858337402344 Z M 25.1119213104248 47.77254867553711 C 24.52577018737793 47.77254867553711 24.00131797790527 48.19640731811523 24.00131797790527 48.86243438720703 L 22.2120189666748 70.05481719970703 L 24.00131797790527 90.58115386962891 C 24.00131797790527 91.24722290039062 24.5257682800293 91.67105865478516 25.1119213104248 91.67105865478516 C 25.69807052612305 91.67105865478516 26.2225227355957 91.24720001220703 26.3150691986084 90.58115386962891 L 28.28947257995605 70.05481719970703 L 26.3150691986084 48.86243438720703 C 26.22252082824707 48.19639205932617 25.69806861877441 47.77254867553711 25.1119213104248 47.77254867553711 Z M 99.58388519287109 14.19774055480957 C 99.24453735351562 13.95554542541504 98.7200927734375 13.77389526367188 98.28818511962891 13.77389526367188 C 97.60947418212891 13.77389526367188 96.99246978759766 14.01609230041504 96.56058502197266 14.34911727905273 C 95.97442626953125 14.8637866973877 95.60423278808594 15.62066078186035 95.54254913330078 16.37753295898438 L 95.54254913330078 16.61972808837891 L 94.52447509765625 70.11539459228516 L 95.04894256591797 79.95470428466797 L 95.57340240478516 89.55181884765625 C 95.66592407226562 90.97475433349609 96.86908721923828 92.15545654296875 98.31904602050781 92.15545654296875 C 99.76898956298828 92.15545654296875 100.9721450805664 90.97473907470703 100.9721450805664 89.55181884765625 L 102.17529296875 70.11539459228516 L 100.9721450805664 16.37753677368164 C 100.8487396240234 15.46928977966309 100.3551483154297 14.62159442901611 99.58388519287109 14.19774436950684 Z M 91.34693145751953 18.82979011535645 C 90.91502380371094 18.58759117126465 90.48311614990234 18.40593719482422 89.98952484130859 18.40593719482422 C 89.49591827392578 18.40593719482422 89.03317260742188 18.58759117126465 88.63211822509766 18.82979011535645 C 87.95340728759766 19.25363540649414 87.52151489257812 20.0105037689209 87.52151489257812 20.85820960998535 L 87.42897033691406 21.37287330627441 L 86.56516265869141 70.05481719970703 C 86.56516265869141 70.05481719970703 86.56516265869141 70.14565277099609 87.52151489257812 89.91510772705078 L 87.52151489257812 90.00595092773438 C 87.52151489257812 90.52061462402344 87.70661926269531 91.00499725341797 88.04598236083984 91.42884826660156 C 88.5704345703125 92.00408172607422 89.24912261962891 92.36737060546875 90.02037048339844 92.36737060546875 C 90.69908142089844 92.36737060546875 91.31607055664062 92.03435516357422 91.74796295166016 91.61048889160156 C 92.27242279052734 91.1866455078125 92.51921844482422 90.6114501953125 92.51921844482422 89.91510772705078 L 92.61177062988281 87.88668823242188 L 93.56812286376953 70.14563751220703 L 92.55007171630859 20.85819244384766 C 92.45752716064453 20.010498046875 92.02560424804688 19.25362777709961 91.34690093994141 18.82977867126465 Z M 56.98000335693359 25.64162445068359 C 56.02365493774414 25.64162445068359 55.19070053100586 26.48932075500488 55.19070053100586 27.48839378356934 L 53.83330154418945 70.05481719970703 L 55.19070053100586 90.39950561523438 C 55.28324890136719 91.39858245849609 56.05449676513672 92.15545654296875 56.98000335693359 92.15545654296875 C 57.99805068969727 92.15545654296875 58.76929473876953 91.39858245849609 58.86185455322266 90.39950561523438 L 60.40434646606445 70.05481719970703 L 58.86185455322266 27.48839378356934 C 58.80014419555664 26.48932075500488 58.02889633178711 25.6416187286377 56.98000335693359 25.6416187286377 Z M 173.1920318603516 44.65423965454102 C 169.8602294921875 44.65423965454102 166.6826782226562 45.32028961181641 163.7519073486328 46.50099563598633 C 161.7775421142578 25.06640625 143.4525909423828 8.233593940734863 121.0863494873047 8.233593940734863 C 115.5950622558594 8.233593940734863 110.2888336181641 9.232662200927734 105.5687866210938 11.07942867279053 C 103.6869506835938 11.7454776763916 103.162483215332 12.41152191162109 103.162483215332 13.86471557617188 L 103.162483215332 89.46099853515625 C 103.162483215332 90.97473907470703 104.3656387329102 92.06462860107422 105.8155822753906 92.24628448486328 L 173.1611938476562 92.24628448486328 C 186.5192718505859 92.24628448486328 197.4092864990234 81.65008544921875 197.4092864990234 68.54109191894531 C 197.4401397705078 55.34126281738281 186.5500946044922 44.65424346923828 173.1920318603516 44.65424346923828 Z M 81.66000366210938 26.39850425720215 C 80.36430358886719 26.39850425720215 79.34626007080078 27.3975715637207 79.25371551513672 28.75993537902832 L 78.23566436767578 70.14566802978516 L 79.25371551513672 90.00595092773438 C 79.34626007080078 91.27749633789062 80.36430358886719 92.27654266357422 81.66000366210938 92.27654266357422 C 82.95571136474609 92.27654266357422 83.97376251220703 91.27749633789062 83.97376251220703 90.00595092773438 L 85.17691802978516 70.14566802978516 L 83.97376251220703 28.75993537902832 C 83.8812255859375 27.3975715637207 82.95571136474609 26.39850425720215 81.66000366210938 26.39850425720215 Z M 65.12439727783203 24.03706550598145 C 64.10634613037109 24.03706550598145 63.15000152587891 24.9755859375 63.15000152587891 26.06548309326172 L 61.94684982299805 70.05484008789062 L 63.15000152587891 90.30869293212891 C 63.2425537109375 91.39858245849609 64.10634613037109 92.24628448486328 65.12439727783203 92.24628448486328 C 66.23500823974609 92.24628448486328 67.09879302978516 91.39858245849609 67.19135284423828 90.30869293212891 L 68.54875183105469 70.05481719970703 L 67.19135284423828 26.06547927856445 C 67.09880828857422 24.97557830810547 66.23500823974609 24.03706169128418 65.12439727783203 24.03706169128418 Z M 73.36135101318359 25.0664119720459 C 72.158203125 25.0664119720459 71.23270416259766 26.00493049621582 71.23270416259766 27.15537261962891 L 70.02955627441406 70.05484008789062 L 71.23271179199219 90.15731048583984 C 71.32525634765625 91.33804321289062 72.18905639648438 92.24628448486328 73.36136627197266 92.24628448486328 C 74.53366851806641 92.24628448486328 75.49001312255859 91.30776214599609 75.49001312255859 90.15731048583984 L 76.78572082519531 70.05481719970703 L 75.49001312255859 27.15536499023438 C 75.49001312255859 25.97465133666992 74.56451416015625 25.06640243530273 73.36136627197266 25.06640243530273 Z">
              </path>
            </svg>