<svg
                class="Icon_awesome_facebook_square"
                viewBox="0 2.25 85.732 84.134">
                <title>Facebook</title>
                <path
                  fill="#949494"
                  id="Icon_awesome_facebook_square"
                  d="M 76.54665374755859 2.25 L 9.18559741973877 2.25 C 4.112532138824463 2.25 -1.595651497154904e-06 6.285856246948242 -2.978634370265354e-07 11.26433372497559 L -2.978634370265354e-07 77.36943817138672 C -2.978634370265354e-07 82.34791564941406 4.112531185150146 86.38375854492188 9.185595512390137 86.38375854492188 L 35.45066833496094 86.38375854492188 L 35.45066833496094 57.78016662597656 L 23.39457130432129 57.78016662597656 L 23.39457130432129 44.31689071655273 L 35.45066833496094 44.31689071655273 L 35.45066833496094 34.05557250976562 C 35.45066833496094 22.38388824462891 42.53123092651367 15.93675994873047 53.37598037719727 15.93675994873047 C 58.56967163085938 15.93675994873047 64.00064849853516 16.84570693969727 64.00064849853516 16.84570693969727 L 64.00064849853516 28.30142021179199 L 58.01662063598633 28.30142021179199 C 52.12060928344727 28.30142021179199 50.28158187866211 31.89212608337402 50.28158187866211 35.57485961914062 L 50.28158187866211 44.31689071655273 L 63.44377899169922 44.31689071655273 L 61.33874130249023 57.78016662597656 L 50.28158187866211 57.78016662597656 L 50.28158187866211 86.38375854492188 L 76.54665374755859 86.38375854492188 C 81.61970520019531 86.38375854492188 85.73224639892578 82.34791564941406 85.73224639892578 77.36943817138672 L 85.73224639892578 11.26433372497559 C 85.73224639892578 6.285853862762451 81.61970520019531 2.25 76.54663848876953 2.25 Z"
                ></path>
              </svg>