<svg
                class="Icon_awesome_instagram"
                viewBox="-0.005 2.238 84.153 84.134">
                <title>Instagram</title>
                <path
                  fill="#949494"
                  id="Icon_awesome_instagram"
                  d="M 42.08038330078125 22.73374557495117 C 30.14039611816406 22.73374557495117 20.50955200195312 32.36458969116211 20.50955200195312 44.30458068847656 C 20.50955200195312 56.24458312988281 30.14039611816406 65.87541961669922 42.08038330078125 65.87541961669922 C 54.02037811279297 65.87541961669922 63.65122222900391 56.24457931518555 63.65122222900391 44.30458068847656 C 63.65122222900391 32.36459732055664 54.02037811279297 22.73374557495117 42.08038330078125 22.73374557495117 Z M 42.08038330078125 58.32844924926758 C 34.36444473266602 58.32844924926758 28.05653190612793 52.0392951965332 28.05653190612793 44.30458068847656 C 28.05653190612793 36.56986999511719 34.34567642211914 30.28071975708008 42.08038330078125 30.28071975708008 C 49.81509780883789 30.28071975708008 56.10425186157227 36.56986999511719 56.10425186157227 44.30458068847656 C 56.10425186157227 52.0392951965332 49.79632949829102 58.32844924926758 42.08038330078125 58.32844924926758 Z M 69.56489562988281 21.85138702392578 C 69.56489562988281 24.64865112304688 67.31207275390625 26.88270378112793 64.53358459472656 26.88270378112793 C 61.73632049560547 26.88270378112793 59.50226593017578 24.62987518310547 59.50226593017578 21.85138702392578 C 59.50226593017578 19.07289886474609 61.75509262084961 16.820068359375 64.53358459472656 16.820068359375 C 67.31207275390625 16.820068359375 69.56489562988281 19.07289886474609 69.56489562988281 21.85138702392578 Z M 83.85159301757812 26.95780181884766 C 83.53244018554688 20.21808815002441 81.99299621582031 14.24808979034424 77.0555419921875 9.329413414001465 C 72.13687896728516 4.410736560821533 66.16688537597656 2.871303081512451 59.42716979980469 2.533378839492798 C 52.48094940185547 2.139134168624878 31.66105461120605 2.139134168624878 24.7148323059082 2.533378839492798 C 17.99389457702637 2.852530241012573 12.02389621734619 4.391963005065918 7.08644437789917 9.310641288757324 C 2.148995399475098 14.22931480407715 0.6283348798751831 20.19931221008301 0.2904090881347656 26.93902778625488 C -0.04751669615507126 33.67874145507812 -0.04751669615507126 54.91164398193359 0.2904090881347656 61.6513557434082 C 0.6095607280731201 68.39107513427734 2.148995399475098 74.36107635498047 7.08644437789917 79.27975463867188 C 12.02389621734619 84.19842529296875 17.99389457702637 85.73785400390625 24.7148323059082 86.07577514648438 C 31.66105461120605 86.46999359130859 52.48094940185547 86.46999359130859 59.42716979980469 86.07577514648438 C 66.14810943603516 85.75662231445312 72.11810302734375 84.21719360351562 77.0555419921875 79.29852294921875 C 81.99299621582031 74.37984466552734 83.53244018554688 68.40984344482422 83.85159301757812 61.67012786865234 C 84.18951416015625 54.93041610717773 84.18951416015625 33.69751358032227 83.85159301757812 26.95780181884766 Z"
                ></path>
              </svg>