<svg
                class="Icon_awesome_napster"
                viewBox="0.001 2.249 92.084 84.134">
                <title>Napster</title>
                <path
                  fill="#949494"
                  id="Icon_awesome_napster"
                  d="M 55.38896942138672 63.26713562011719 C 52.75222015380859 65.69634246826172 49.57696533203125 67.57181549072266 46.03034973144531 68.71498107910156 C 42.50229263305664 67.57181549072266 39.30847930908203 65.69634246826172 36.69028854370117 63.26713562011719 L 55.38896942138672 63.26713562011719 Z M 63.55918502807617 27.61505508422852 C 67.27292633056641 24.59642028808594 71.65514373779297 22.3994255065918 76.48300170898438 21.14909934997559 L 76.48300170898438 49.94225692749023 C 76.48300170898438 89.13098907470703 15.57769298553467 88.80947875976562 15.57769298553467 49.99584579467773 L 15.57769298553467 21.13123893737793 C 20.38698387145996 22.36370086669922 24.78775978088379 24.63214683532715 28.48293113708496 27.63292121887207 C 39.02994918823242 20.48821640014648 53.08645248413086 20.50607872009277 63.55920028686523 27.61506080627441 Z M 24.78775978088379 17.16592407226562 C 36.74599838256836 6.448864936828613 55.29612350463867 6.431002616882324 67.29150390625 17.13019943237305 C 65.97312927246094 17.75536155700684 64.71044921875 18.43410682678223 63.46635437011719 19.18430328369141 C 52.56653213500977 13.73646545410156 39.47560119628906 13.75432682037354 28.57577896118164 19.20216369628906 C 27.40595245361328 18.48769760131836 25.99472999572754 17.73750114440918 24.78776550292969 17.16592407226562 Z M 8.131646156311035 13.18275451660156 L 8.131646156311035 25.56095314025879 C -2.712469100952148 32.08050155639648 -2.712469100952148 47.19154357910156 8.150215148925781 53.83612442016602 C 13.0523509979248 97.61531829833984 79.02691650390625 96.75796508789062 83.83620452880859 54.10405349731445 L 83.89190673828125 53.8004035949707 C 94.79172515869141 47.31657791137695 94.82884979248047 32.06263732910156 83.92903900146484 25.54308891296387 L 83.92903900146484 13.18275451660156 C 80.71665191650391 13.27206230163574 77.61568450927734 13.71860599517822 74.62612915039062 14.50452423095703 C 59.39981079101562 -1.838992357254028 32.75373077392578 -1.856854438781738 8.131646156311035 13.18275451660156 Z"
                ></path>
              </svg>