<svg
                class="Icon_awesome_twitter_square"
                viewBox="0 2.25 84.134 84.134">
                <title>Twitter</title>
                <path
                  fill="#949494"
                  id="Icon_awesome_twitter_square"
                  d="M 75.11944580078125 2.25 L 9.014331817626953 2.25 C 4.037670135498047 2.25 0 6.287670135498047 0 11.26433277130127 L 0 77.36943054199219 C 0 82.34609222412109 4.037670135498047 86.38376617431641 9.014331817626953 86.38376617431641 L 75.11944580078125 86.38376617431641 C 80.09609985351562 86.38376617431641 84.13376617431641 82.34609222412109 84.13376617431641 77.36943054199219 L 84.13376617431641 11.26433277130127 C 84.13376617431641 6.287670135498047 80.09609985351562 2.25 75.11944580078125 2.25 Z M 65.93608856201172 32.07241439819336 C 65.97364807128906 32.59824752807617 65.97364807128906 33.14286804199219 65.97364807128906 33.668701171875 C 65.97364807128906 49.95084762573242 53.57893753051758 68.71192169189453 30.93042945861816 68.71192169189453 C 23.94432067871094 68.71192169189453 17.46526908874512 66.68369293212891 12.01910877227783 63.19064712524414 C 13.01444244384766 63.30331802368164 13.97221374511719 63.34088134765625 14.986328125 63.34088134765625 C 20.75174522399902 63.34088134765625 26.04766464233398 61.38777542114258 30.27313423156738 58.08251953125 C 24.86453247070312 57.9698486328125 20.3198070526123 54.42044830322266 18.76107597351074 49.53768539428711 C 20.65784645080566 49.81938552856445 22.36681175231934 49.81938552856445 24.31991386413574 49.31232833862305 C 18.68595886230469 48.16675567626953 14.46048831939697 43.20886993408203 14.46048831939697 37.21809387207031 L 14.46048831939697 37.06785583496094 C 16.09433746337891 37.98807144165039 18.0098819732666 38.55146789550781 20.01932907104492 38.6265869140625 C 16.58796882629395 36.34414672851562 14.5288667678833 32.49391555786133 14.53561115264893 28.37278175354004 C 14.53561019897461 26.08163642883301 15.13656616210938 23.97829246520996 16.20701599121094 22.15664482116699 C 22.27291297912598 29.63102912902832 31.38114547729492 34.51379776000977 41.59738922119141 35.03963470458984 C 39.85086822509766 26.68259429931641 46.10454940795898 19.90306091308594 53.61650466918945 19.90306091308594 C 56.98542022705078 19.90306091308594 59.94116592407227 21.30688858032227 62.15718460083008 23.52291488647461 C 59.62191390991211 25.26943588256836 56.48570251464844 26.41500854492188 52.97408676147461 26.41500854492188 C 52.63616180419922 26.41500854492188 52.33584213256836 26.37744903564453 52.01669311523438 26.34000015258789 C 51.90402221679688 26.30234146118164 51.79135131835938 26.26478195190429 51.67868041992188 26.22722244262695 C 51.30309295654297 26.11455154418945 50.92750549316406 25.96431350708008 50.58958053588867 25.8140754699707 C 60.01626586914062 25.8140754699707 64.19296264648438 28.44789886474609 65.93608856201172 32.07241439819336 Z"
                ></path>
              </svg>