<svg class="Icon_awesome_youtube" viewBox="0 0 24 24">
                <title>YouTube</title>
                <path
                  fill="#949494"
                  d="M23.498,6.186c-0.276-1.343-1.389-2.39-2.77-2.652C18.678,3,12,3,12,3s-6.678,0-8.728,0.534c-1.381,0.262-2.494,1.309-2.77,2.652C0,8.101,0,12,0,12s0,3.899,0.502,5.814c0.276,1.343,1.389,2.39,2.77,2.652C5.322,21,12,21,12,21s6.678,0,8.728-0.534c1.381-0.262,2.494-1.309,2.77-2.652C24,15.899,24,12,24,12S24,8.101,23.498,6.186z M9.545,15.568V8.432l6.05,3.568L9.545,15.568z"
                ></path>
              </svg>